<?xml version="1.0" standalone="no"?>
<!DOCTYPE svg PUBLIC "-//W3C//DTD SVG 20010904//EN"
 "http://www.w3.org/TR/2001/REC-SVG-20010904/DTD/svg10.dtd">
<svg version="1.0" xmlns="http://www.w3.org/2000/svg"
 width="400.000000pt" height="200.000000pt" viewBox="0 0 400.000000 200.000000"
 preserveAspectRatio="xMidYMid meet">

<g transform="translate(0.000000,200.000000) scale(0.100000,-0.100000)"
fill="#000000" stroke="none">
<path d="M1975 1559 c-22 -5 -89 -27 -150 -48 -60 -22 -252 -85 -425 -142
-359 -117 -433 -144 -725 -274 -115 -51 -248 -109 -295 -127 l-85 -34 -3 -90
c-3 -102 9 -184 43 -292 19 -60 36 -90 76 -134 28 -32 58 -58 67 -58 22 0 509
122 616 155 85 25 444 121 656 174 438 110 463 119 504 174 18 24 19 31 8 59
-14 39 -3 54 103 132 102 76 190 127 295 171 50 21 94 44 97 51 2 7 38 25 79
40 l74 27 2 46 c5 121 -1 125 -101 77 -76 -38 -101 -40 -101 -10 0 17 -5 17
-55 -1 -50 -18 -357 -20 -454 -4 -67 12 -68 13 -141 97 -21 24 -26 25 -85 11z
m82 -35 c30 -30 24 -43 -11 -20 -14 9 -30 16 -36 16 -23 0 -3 -222 32 -345 52
-182 71 -230 102 -257 37 -33 48 -34 71 -8 20 22 35 18 35 -11 0 -23 -42 -69
-63 -69 -26 0 -96 110 -118 184 -11 39 -39 127 -61 194 -38 117 -40 129 -36
219 3 79 7 98 23 109 26 19 32 18 62 -12z m-97 -10 c-6 -14 -10 -61 -10 -105
0 -69 7 -102 49 -232 27 -84 55 -171 61 -194 6 -23 30 -71 54 -106 l43 -65
-136 -36 c-143 -38 -339 -88 -506 -129 -55 -13 -147 -38 -205 -55 -270 -81
-675 -187 -801 -209 -21 -4 -36 4 -67 31 -77 70 -132 240 -132 410 0 104 1
105 70 129 44 15 159 64 455 195 124 55 1081 388 1122 391 9 1 10 -6 3 -25z
m98 -38 c69 -36 155 -47 372 -48 118 0 226 1 240 3 22 4 27 -2 47 -58 12 -35
20 -70 16 -78 -3 -9 -65 -44 -137 -79 -148 -72 -264 -153 -349 -246 l-59 -63
-26 20 c-43 32 -121 283 -136 441 -6 67 -8 122 -3 122 4 0 20 -6 35 -14z m830
-65 l3 -52 -57 -25 c-31 -14 -63 -23 -70 -20 -11 4 -34 65 -34 91 0 11 128 64
145 61 6 -2 11 -26 13 -55z"/>
<path d="M1225 1010 c-28 -16 -75 -35 -105 -41 -30 -6 -103 -33 -162 -61 -95
-43 -113 -49 -151 -43 -38 6 -48 3 -75 -20 -18 -15 -37 -37 -43 -49 -7 -12 9
-1 35 23 42 41 48 44 73 35 31 -12 78 1 199 54 38 17 97 38 131 46 62 16 153
58 154 71 1 15 -9 12 -56 -15z"/>
<path d="M1430 970 c-25 -10 -54 -19 -66 -19 -11 -1 -52 -17 -91 -36 -39 -19
-80 -35 -90 -35 -25 0 -96 -23 -168 -53 -34 -14 -94 -33 -135 -42 -99 -22
-137 -39 -185 -82 -43 -37 -40 -36 44 14 31 18 86 39 130 49 42 9 120 34 173
55 54 21 117 42 140 45 24 4 61 16 83 27 22 11 81 33 132 49 51 16 93 33 93
38 0 13 -7 12 -60 -10z"/>
<path d="M1825 836 c-275 -75 -670 -191 -805 -236 -80 -27 -199 -63 -265 -80
-131 -33 -175 -48 -175 -60 0 -8 233 58 440 125 152 49 366 114 498 149 48 13
158 44 244 70 87 25 167 46 178 46 11 0 20 5 20 10 0 13 5 14 -135 -24z"/>
<path d="M2140 1103 c0 -6 4 -23 10 -37 11 -31 41 -34 88 -10 50 24 37 35 -14
13 -25 -12 -47 -19 -49 -17 -1 1 -10 17 -18 33 -9 17 -16 25 -17 18z"/>
<path d="M3144 1191 c-104 -64 -333 -459 -374 -648 -15 -69 -17 -91 -7 -100 7
-6 73 -34 147 -61 74 -27 175 -66 224 -86 124 -52 344 -126 372 -126 23 0 87
71 161 180 42 61 153 285 153 308 0 28 -102 145 -188 216 -251 208 -420 336
-446 336 -6 0 -25 -9 -42 -19z m133 -54 c121 -87 313 -246 395 -326 l78 -75
-36 -29 c-44 -37 -186 -247 -224 -333 -45 -100 -55 -140 -40 -159 21 -25 -1
-19 -208 60 -108 41 -255 96 -327 123 l-130 47 -3 41 c-4 56 26 140 113 319
100 205 236 386 289 385 11 -1 54 -24 93 -53z m503 -449 c11 -12 20 -25 20
-30 0 -12 -75 -177 -107 -234 -30 -54 -169 -224 -184 -224 -21 0 -50 41 -44
63 23 88 208 394 262 435 23 17 29 15 53 -10z"/>
<path d="M2914 615 c-30 -65 -28 -101 6 -127 29 -21 331 -150 338 -144 6 6
-35 26 -178 86 -193 82 -195 84 -156 179 31 76 24 80 -10 6z"/>
<path d="M3694 556 c-10 -8 -16 -17 -13 -20 3 -3 14 1 25 8 10 8 16 17 13 20
-3 3 -14 -1 -25 -8z"/>
<path d="M3640 465 c-19 -19 -30 -35 -24 -35 5 0 25 16 44 35 44 45 26 45 -20
0z"/>
<path d="M3595 375 c-33 -30 -55 -55 -50 -55 6 0 35 25 65 55 30 30 52 55 50
55 -3 0 -32 -25 -65 -55z"/>
<path d="M3512 254 c-20 -19 -28 -31 -17 -26 22 11 73 62 62 62 -4 0 -24 -16
-45 -36z"/>
</g>
</svg>
